<?xml version="1.0" encoding="UTF-8"?>
<svg id="Layer_1" data-name="Layer 1" xmlns="http://www.w3.org/2000/svg" viewBox="0 0 360 360">
  <path d="m329.35,264.11c8.58,1.2,16.77,1.31,24.93-.34,2.08-.42,2.98.56,2.87,2.71-.2,3.8-1.51,4.98-5.09,6.29-7.05,2.59-13.96,5.56-20.16,9.91-1.41.99-1.31,2.09.26,2.8,4.76,2.15,9.57,4.03,14.97,3.96,2.21-.03,4.46.53,6.65.98,2.18.45,2.63,1.53,1.67,3.47-3.77,7.61-13.31,11.21-21.3,8-1.52-.61-2.25-.2-1.88,1.44,1.61,7.2.44,14.47.63,21.71.13,4.88-6.3,9.15-10.4,6.78-4.29-2.48-8.65-4.85-13.1-7.04-6.18-3.05-12.5-5.8-18.69-8.83-10.1-4.95-20.94-6.34-31.97-6.93-4.41-.23-8.82-.33-13.23-.53-5.89-.27-11.77-.79-17.65-.83-10.02-.05-20.05.23-30.08.29-8.91.05-17.83-.18-26.74.04-8.82.21-17.63.94-26.45,1.21-4.8.15-9.62-.17-14.43-.25-7.89-.15-15.66.83-23.49,1.74-8.39.98-16.79,1.85-25.04,3.59-5.21,1.1-10.25,3.02-15.36,4.57-.53.16-1.07.33-1.61.43-2.25.41-4.63.45-6.73,1.24-11.91,4.49-23.81,9.01-35.58,13.84-3.35,1.38-6.34,3.73-9.34,5.86-2.55,1.81-4.35,1.56-5.26-1.47-.84-2.82-1.44-5.77-1.73-8.7-.43-4.38-.42-8.8-.75-13.19-.35-4.6-1.24-9.19-1.24-13.79-.01-7.6.27-15.23.86-22.81.32-4.11,1.77-8.13,2.3-12.24.83-6.43.97-12.97,2.05-19.36,1.46-8.6,3.7-17.07,5.29-25.65,1.43-7.72,2.51-15.5,3.59-23.28,1.56-11.19,1.43-22.4.03-33.61-.58-4.69-1.2-9.39-1.36-14.1-.43-13-.35-26.03-1-39.02-.4-7.97-1.18-16.03-2.89-23.8-1.24-5.62-4.36-10.81-6.52-16.24-1.33-3.33-3.14-6.68-3.48-10.14-.66-6.79.55-7.98,7.9-7.17,9.46,1.04,18.79,3.28,28.18,4.97,3.05.55,6.14.92,9.18,1.49,2.2.41,4.55.64,6.52,1.59,8.34,4.03,17.57,5.37,26.09,8.83,5.5,2.23,10.98,4.49,16.49,6.71,2.82,1.14,5.75,2.02,8.46,3.36,3.01,1.48,5.85,3.33,8.74,5.05,5.01,3,10.15,5.82,14.96,9.12,4.16,2.84,7.72,6.58,11.93,9.32,10.84,7.05,18.96,17.28,29.47,24.69,2.38,1.68,4.21,4.16,6.24,6.32,2.3,2.45,3.03,2.37,5.43.11,6.49-6.09,12.89-12.31,19.7-18.03,7.79-6.54,16.13-12.42,23.94-18.93,8.72-7.28,18.79-12.2,28.67-17.54,8.45-4.56,16.57-9.73,24.96-14.4,5.03-2.81,10.21-5.4,15.49-7.7,4.57-2,9.61-3,14.03-5.25,8.51-4.34,17.68-5.35,26.9-6.41.63-.07,1.26-.1,2.23-.17-.14.98-.18,1.82-.38,2.62-2.48,9.7-5.09,19.37-7.46,29.1-2.06,8.48-4.13,16.98-5.64,25.57-.92,5.25-.81,10.69-1.13,16.04-.59,9.92-1.11,19.84-1.75,29.76-.68,10.65-1.67,21.28-2.14,31.93-.34,7.61-.08,15.25-.05,22.87.02,3.61.15,7.22.19,10.83.03,2.08.46,3.31,3.1,3.41,7.35.27,14.68.93,22.02,1.44,1.9.13,5.95,4.09,5.85,5.98-.04.71-.66,1.76-1.28,2.01-1.39.55-2.94.97-4.42.97-6.97,0-11.85,3.81-16.12,8.7-.49.57-.85,2.02-.53,2.36.61.64,1.73.96,2.68,1.09,5.5.76,10.85-.43,16.14-1.68,2.93-.69,4.78.54,6.42,2.55,1.49,1.83-.26,7.19-2.59,7.8-2.94.77-6.12.89-8.87,2.07-3.57,1.52-6.93,3.63-10.14,5.84-1.32.91-2.01,2.72-2.97,4.1Zm-146.35-51.34c.79-1.15,1.17-1.67,1.52-2.2,2.67-4.1,5.43-8.15,7.98-12.32,5.92-9.67,15.97-12.75,25.84-15.21,9.67-2.41,19.62-1.16,29.2,1.87,7.99,2.53,14.85,7.12,21.41,12.16,3.78,2.91,6.81,6.43,8.84,10.91,3.72,8.21,4.9,16.79,4.14,25.61-.58,6.69-1.86,13.32-2.76,19.98-.78,5.79-3.55,10.65-7.31,14.88-5.7,6.41-11.7,12.55-17.55,18.83-.82.88-1.63,1.79-2.28,2.79-2.1,3.19-3.41,6.64-3.27,10.54,5.11.09,5.65-.35,7.17-4.64.64-1.78,1.35-3.72,2.59-5.08,5.89-6.46,11.77-12.96,18.05-19.02,5.89-5.67,8.76-12.17,8.42-20.37-.15-3.7-.26-7.82,2.34-10.84,3.59-4.19,7.52-8.11,11.54-11.89,2.31-2.17,4.2-4.33,4.31-7.65.1-2.81.44-5.61.43-8.41-.04-10.68-.34-21.35-.23-32.03.09-8.82.56-17.63.95-26.44.29-6.57.39-13.16,1.14-19.68,1.07-9.32,2.26-18.67,4.12-27.86,1.62-7.99,4.25-15.76,6.41-23.64.64-2.34,1.23-4.7,1.95-7.46-1.67.3-2.8.36-3.83.71-7.35,2.49-14.95,4.46-21.96,7.71-9.5,4.4-19.29,8.39-27.83,14.69-1.74,1.28-3.64,2.35-5.5,3.46-9.81,5.88-18.94,12.63-27.26,20.51-4.53,4.29-9.27,8.37-13.81,12.66-2.72,2.57-5.3,5.31-7.83,8.07-4.87,5.32-9.57,10.8-14.52,16.04-4.28,4.53-8.85,8.79-13.23,13.23-1.78,1.8-3.89,1.8-5.58-.26-1.32-1.61-2.53-3.32-3.85-4.93-4.84-5.87-9.34-12.07-14.67-17.46-5.53-5.59-11.85-10.38-17.84-15.51-3.71-3.18-7.45-6.33-11.2-9.47-6.33-5.29-12.54-10.74-19.06-15.78-4.37-3.37-8.91-6.75-13.88-9.07-9.18-4.28-18.66-7.98-28.15-11.55-10.03-3.78-19.97-7.93-30.81-9.1-4.1-.44-5.81,1.07-4.98,5.16.11.55.31,1.08.49,1.61,4.21,12.59,5.79,25.63,6.46,38.8.44,8.48-.21,17.01,1.71,25.4.55,2.42.81,4.9,1.18,7.36.81,5.39,1.05,10.76.82,16.24-.29,6.9.33,13.84.61,20.77.55,13.21-2.25,26.03-4.53,38.89-1.9,10.73-4.41,21.34-6.34,32.06-.99,5.48-1.55,11.07-1.8,16.63-.16,3.4.63,6.85,1.01,10.27.26,2.41,2.13,3.29,4.42,2.27,4.21-1.87,8.47-3.64,12.73-5.4,2.73-1.12,5.42-2.46,8.26-3.14,5.69-1.35,5.32-1.65,5.89-7.06.62-5.89.71-11.83,1.2-17.74.51-6.23.42-12.65,2-18.62,4.33-16.34,4.17-32.71,1.64-49.16-.76-4.95-2.57-9.75-4.09-14.56-1.53-4.84-3.35-9.59-4.92-14.42-.6-1.87-.81-3.96,1.12-5.24,2.03-1.35,4.18-2.61,6.44-3.52,9.96-4.06,20.34-4.1,30.81-2.86.52.06,1.29.55,1.41.98.9,3.31,1.83,6.64,2.44,10.01.8,4.49,1.17,9.05,2.03,13.52.37,1.92,1.39,3.75,2.37,5.48.37.65,1.58,1.37,2.24,1.23,2.96-.62,5.9-1.44,8.78-2.38,3.46-1.13,6.85-3.55,10.26-3.52,9.84.07,20.02-2.2,29.41,2.78,3.51,1.86,7.36,3.33,10.39,5.81,6.09,4.99,9.6,11.89,12.55,19.09.88,2.15,2.4,4.03,3.86,6.41Zm-21.39,28.38c-.08-.92,0-2.74-.45-4.41-2.82-10.45-8.99-18.3-18.65-23.27-5.06-2.6-10.57-3.19-16.14-3.07-1.86.04-3.8.55-5.56,1.23-7.15,2.74-13.03,7.33-16.29,14.23-2.25,4.75-3.8,10.1-4.34,15.31-.42,3.98,1.17,8.18,1.98,12.26,1.15,5.77,4.33,10.52,8.92,13.86,3.83,2.79,8.35,4.71,12.74,6.61,9.96,4.3,21.74,1.52,28.41-6.72,5.82-7.19,9.42-15.6,9.38-26.02Zm94.36-1.71c-.82-4.71-.92-9.7-2.64-14.05-2.23-5.64-6.76-9.72-12.08-12.89-11.13-6.65-26.53-5.42-34.84,7.22-3.19,4.85-5.75,9.91-7.05,15.67-.85,3.8-1.63,7.47-.88,11.35.79,4.08,3.06,7.34,5.54,10.53,5.71,7.37,12.39,12.97,22.05,14.63,5.87,1.01,10.98.03,15.2-3.8,8.39-7.61,14.47-16.54,14.69-28.66Zm41.71,27.51c.89-.05,1.22-.04,1.53-.1.31-.06.61-.2.92-.29,8.1-2.16,13.44-8.05,18.78-13.92.54-.59.93-2.07.59-2.52-.48-.63-1.81-1.07-2.62-.9-1.94.41-3.91.99-5.65,1.91-5.75,3.05-11.36,6.37-15.06,12-.52.79-1.01,2.15-.67,2.81.34.68,1.73.82,2.19,1Zm-3.41,17.35c2.71,1.51,5.16,1.87,7.72.92,2.26-.83,4.65-1.46,6.69-2.66,3.44-2.02,6.7-4.36,9.92-6.72.62-.45,1.15-1.78.92-2.43-.23-.66-1.4-1.26-2.23-1.38-1.32-.2-2.8-.29-4.04.12-6.35,2.08-12.53,4.56-17.44,9.32-.72.7-1.02,1.83-1.55,2.84Zm23.32-52.32c-.79.13-1.2.15-1.58.26-8.75,2.5-15.82,7.62-21.94,14.17-.54.58-.69,1.59-.87,2.44-.31,1.44.5,2.08,1.76,1.65,1.57-.54,3.14-1.23,4.53-2.14,5.03-3.29,10.01-6.67,14.95-10.09,1.44-1,2.76-2.2,4-3.44.42-.42.68-1.37.5-1.89-.18-.5-1.04-.75-1.35-.95Z" style="fill: #020201; stroke-width: 0px;"/>
  <path d="m183,212.77c-1.46-2.38-2.98-4.26-3.86-6.41-2.96-7.2-6.46-14.11-12.55-19.09-3.02-2.47-6.87-3.95-10.39-5.81-9.39-4.98-19.56-2.71-29.41-2.78-3.41-.03-6.81,2.39-10.26,3.52-2.88.95-5.82,1.76-8.78,2.38-.65.14-1.86-.58-2.24-1.23-.98-1.72-2-3.56-2.37-5.48-.86-4.47-1.23-9.04-2.03-13.52-.6-3.38-1.54-6.7-2.44-10.01-.12-.43-.89-.92-1.41-.98-10.47-1.24-20.85-1.2-30.81,2.86-2.25.92-4.4,2.18-6.44,3.52-1.93,1.28-1.72,3.37-1.12,5.24,1.56,4.83,3.39,9.58,4.92,14.42,1.52,4.81,3.32,9.61,4.09,14.56,2.54,16.45,2.69,32.82-1.64,49.16-1.58,5.97-1.49,12.39-2,18.62-.49,5.91-.57,11.85-1.2,17.74-.57,5.41-.21,5.71-5.89,7.06-2.84.67-5.54,2.01-8.26,3.14-4.26,1.76-8.52,3.53-12.73,5.4-2.28,1.01-4.15.14-4.42-2.27-.37-3.43-1.16-6.87-1.01-10.27.25-5.56.82-11.15,1.8-16.63,1.93-10.72,4.44-21.34,6.34-32.06,2.28-12.86,5.08-25.69,4.53-38.89-.29-6.92-.91-13.86-.61-20.77.23-5.49,0-10.86-.82-16.24-.37-2.46-.63-4.94-1.18-7.36-1.92-8.38-1.27-16.92-1.71-25.4-.68-13.17-2.26-26.21-6.46-38.8-.18-.53-.37-1.06-.49-1.61-.84-4.09.88-5.6,4.98-5.16,10.84,1.16,20.78,5.32,30.81,9.1,9.49,3.57,18.96,7.27,28.15,11.55,4.96,2.31,9.51,5.69,13.88,9.07,6.53,5.04,12.74,10.49,19.06,15.78,3.75,3.14,7.48,6.29,11.2,9.47,5.99,5.12,12.32,9.92,17.84,15.51,5.33,5.39,9.83,11.59,14.67,17.46,1.33,1.61,2.53,3.31,3.85,4.93,1.68,2.06,3.8,2.06,5.58.26,4.38-4.44,8.95-8.7,13.23-13.23,4.95-5.24,9.65-10.73,14.52-16.04,2.53-2.76,5.11-5.5,7.83-8.07,4.54-4.29,9.28-8.37,13.81-12.66,8.31-7.87,17.45-14.63,27.26-20.51,1.86-1.11,3.76-2.18,5.5-3.46,8.54-6.3,18.33-10.28,27.83-14.69,7.01-3.25,14.61-5.22,21.96-7.71,1.03-.35,2.16-.41,3.83-.71-.72,2.76-1.31,5.11-1.95,7.46-2.17,7.87-4.8,15.65-6.41,23.64-1.86,9.19-3.06,18.53-4.12,27.86-.75,6.52-.85,13.11-1.14,19.68-.39,8.81-.86,17.62-.95,26.44-.11,10.67.19,21.35.23,32.03.01,2.8-.33,5.61-.43,8.41-.11,3.33-2.01,5.48-4.31,7.65-4.02,3.78-7.95,7.7-11.54,11.89-2.6,3.03-2.49,7.14-2.34,10.84.34,8.19-2.54,14.7-8.42,20.37-6.29,6.06-12.16,12.56-18.05,19.02-1.24,1.36-1.96,3.29-2.59,5.08-1.53,4.28-2.06,4.72-7.17,4.64-.14-3.91,1.17-7.35,3.27-10.54.66-1,1.46-1.92,2.28-2.79,5.85-6.27,11.85-12.42,17.55-18.83,3.76-4.23,6.53-9.09,7.31-14.88.9-6.66,2.18-13.29,2.76-19.98.76-8.82-.42-17.4-4.14-25.61-2.03-4.48-5.05-8-8.84-10.91-6.56-5.04-13.42-9.63-21.41-12.16-9.57-3.03-19.53-4.28-29.2-1.87-9.87,2.46-19.92,5.54-25.84,15.21-2.55,4.17-5.31,8.22-7.98,12.32-.35.54-.73,1.06-1.52,2.2Zm94.36-27.86c4.61-6.38,6.86-13.42,9.32-20.31,1.65-4.63,2.21-9.64,3.42-14.44,2.26-8.9,2.31-17.92,1.55-26.98-.29-3.45-.41-3.43-3.97-3.2-.96.06-1.94,0-2.88.15-3.14.54-6.66.46-9.3,1.93-3.55,1.97-6.55,5.03-9.54,7.88-1.7,1.62-2.84,3.81-4.34,5.66-5.55,6.79-10.52,13.92-13.76,22.15-1.69,4.31-3.47,8.58-5.32,13.13,13.09,1.5,24.56,6.12,34.82,14.01Zm-181.26-38.48c-.8-4.11-1.43-7.82-2.26-11.48-.77-3.38-2.64-6.06-5.35-8.32-4.28-3.59-8.88-6.34-14.24-8.19-4.9-1.69-9.71-3.2-14.92-3.15-3.95.04-4.8.77-5.34,4.73-.06.47-.23.93-.35,1.4-2.46,9.5-2.24,18.82,1.84,27.89,1.31,2.92,2.27,3.24,4.77,1.16,5.33-4.43,12.09-3.6,18.21-5.02,2.76-.64,5.87.27,8.82.46,2.77.18,5.55.33,8.83.52Z" style="fill: #ebcd1e; stroke-width: 0px;"/>
  <path d="m161.61,241.16c.03,10.42-3.57,18.83-9.38,26.02-6.67,8.25-18.45,11.02-28.41,6.72-4.39-1.89-8.91-3.82-12.74-6.61-4.59-3.34-7.76-8.09-8.92-13.86-.81-4.08-2.4-8.28-1.98-12.26.54-5.22,2.09-10.56,4.34-15.31,3.26-6.9,9.14-11.49,16.29-14.23,1.76-.67,3.69-1.19,5.56-1.23,5.57-.13,11.09.47,16.14,3.07,9.67,4.97,15.83,12.82,18.65,23.27.45,1.67.36,3.5.45,4.41Zm-21.29,3.52c-.11-8.4-1.32-16.43-7.48-22.89-2.05-2.15-2.66-2.24-4.49.06-5.78,7.25-8.13,15.62-7.16,24.71.72,6.79,3.67,12.71,9.41,16.86,2.27,1.64,3,1.57,4.45-.76,3.41-5.48,5.31-11.45,5.28-17.99Z" style="fill: #ebcc1e; stroke-width: 0px;"/>
  <path d="m255.97,239.44c-.23,12.12-6.31,21.05-14.69,28.66-4.23,3.83-9.33,4.81-15.2,3.8-9.66-1.66-16.34-7.26-22.05-14.63-2.48-3.2-4.75-6.46-5.54-10.53-.75-3.88.03-7.56.88-11.35,1.29-5.76,3.86-10.82,7.05-15.67,8.31-12.64,23.71-13.87,34.84-7.22,5.32,3.18,9.85,7.26,12.08,12.89,1.72,4.35,1.82,9.34,2.64,14.05Zm-20.21,1.04c.23-5.63-1.25-11.15-3.92-16.35-2.47-4.8-4.87-4.88-8.02-.43-.05.07-.09.13-.14.2-5.84,7.15-6.46,15.61-5.46,24.19.61,5.2,3.88,9.35,7.65,12.96,1.52,1.45,2.63,1.11,3.88-.49,4.54-5.85,6.29-12.5,6.01-20.07Z" style="fill: #eacc1e; stroke-width: 0px;"/>
  <path d="m297.68,266.95c-.46-.18-1.84-.33-2.19-1-.34-.66.15-2.02.67-2.81,3.7-5.63,9.3-8.95,15.06-12,1.74-.92,3.71-1.51,5.65-1.91.82-.17,2.14.27,2.62.9.35.45-.05,1.93-.59,2.52-5.34,5.87-10.68,11.76-18.78,13.92-.31.08-.6.23-.92.29-.31.06-.64.05-1.53.1Z" style="fill: #e6c81d; stroke-width: 0px;"/>
  <path d="m294.27,284.3c.53-1.01.83-2.14,1.55-2.84,4.91-4.76,11.09-7.25,17.44-9.32,1.24-.4,2.72-.31,4.04-.12.83.12,2,.73,2.23,1.38.22.65-.3,1.98-.92,2.43-3.22,2.36-6.48,4.7-9.92,6.72-2.05,1.2-4.44,1.83-6.69,2.66-2.57.95-5.02.59-7.72-.92Z" style="fill: #e6c81d; stroke-width: 0px;"/>
  <path d="m317.6,231.98c.31.2,1.17.46,1.35.95.19.52-.08,1.47-.5,1.89-1.24,1.24-2.56,2.44-4,3.44-4.94,3.42-9.92,6.8-14.95,10.09-1.39.91-2.96,1.61-4.53,2.14-1.26.43-2.07-.21-1.76-1.65.18-.84.33-1.86.87-2.44,6.12-6.55,13.19-11.67,21.94-14.17.38-.11.79-.13,1.58-.26Z" style="fill: #e5c71d; stroke-width: 0px;"/>
  <path d="m277.36,184.92c-10.26-7.89-21.72-12.51-34.82-14.01,1.85-4.55,3.62-8.83,5.32-13.13,3.24-8.23,8.21-15.36,13.76-22.15,1.5-1.84,2.64-4.03,4.34-5.66,2.99-2.85,5.99-5.91,9.54-7.88,2.65-1.47,6.16-1.39,9.3-1.93.94-.16,1.92-.09,2.88-.15,3.56-.24,3.68-.25,3.97,3.2.76,9.06.7,18.08-1.55,26.98-1.22,4.8-1.77,9.81-3.42,14.44-2.46,6.88-4.71,13.93-9.32,20.31Z" style="fill: #020200; stroke-width: 0px;"/>
  <path d="m96.11,146.44c-3.28-.19-6.05-.34-8.83-.52-2.95-.19-6.06-1.1-8.82-.46-6.12,1.42-12.88.59-18.21,5.02-2.5,2.08-3.46,1.75-4.77-1.16-4.08-9.07-4.3-18.39-1.84-27.89.12-.46.29-.92.35-1.4.54-3.96,1.39-4.69,5.34-4.73,5.22-.06,10.02,1.45,14.92,3.15,5.36,1.85,9.96,4.6,14.24,8.19,2.7,2.27,4.58,4.94,5.35,8.32.83,3.66,1.46,7.37,2.26,11.48Z" style="fill: #030300; stroke-width: 0px;"/>
  <path d="m140.32,244.68c.03,6.54-1.87,12.5-5.28,17.99-1.45,2.33-2.18,2.4-4.45.76-5.74-4.15-8.68-10.07-9.41-16.86-.97-9.09,1.38-17.46,7.16-24.71,1.83-2.3,2.44-2.21,4.49-.06,6.17,6.46,7.37,14.49,7.48,22.89Z" style="fill: #030300; stroke-width: 0px;"/>
  <path d="m235.76,240.48c.28,7.57-1.47,14.22-6.01,20.07-1.25,1.61-2.35,1.94-3.88.49-3.78-3.6-7.04-7.75-7.65-12.96-1.01-8.58-.39-17.04,5.46-24.19.05-.06.09-.13.14-.2,3.15-4.44,5.55-4.36,8.02.43,2.67,5.2,4.16,10.72,3.92,16.35Z" style="fill: #030300; stroke-width: 0px;"/>
</svg>